<svg width="205" height="85" viewBox="0 0 205 85" fill="none" xmlns="http://www.w3.org/2000/svg">
    <path fill-rule="evenodd" clip-rule="evenodd" d="M8.69182 13.8529C10.4337 16.1046 12.3707 18.5501 15.4865 19.1913C17.3034 21.4355 18.9702 24.0152 22.3262 24.7683C24.1657 27.0423 25.885 29.7637 29.241 30.5838C31.5985 33.499 33.2052 36.3248 37.8376 36.8393C51.5246 38.3602 64.6785 39.747 78.1177 41.1189C79.5968 43.1394 81.7891 44.7573 84.1691 46.2411L100.987 56.6941C102.053 57.3577 103.495 57.3577 104.568 56.6941L121.386 46.2411C123.758 44.7648 125.958 43.1394 127.43 41.1189C140.877 39.7545 154.03 38.3677 167.717 36.8393C172.357 36.3248 173.957 33.499 176.314 30.5838C179.67 29.7637 181.389 27.0423 183.229 24.7683C186.577 24.0152 188.244 21.443 190.069 19.1913C193.184 18.5426 195.121 16.1046 196.863 13.8529C199.694 13.3385 201.135 11.7578 202.885 9.62548L204.694 7.41855C205.062 6.97866 205.099 6.44184 204.799 5.96466C204.499 5.48749 203.951 5.21162 203.313 5.21162H129.397C120.598 1.80431 112.632 0 102.774 0C92.9159 0 84.9499 1.80431 76.1506 5.21162H2.235C1.59682 5.21162 1.04874 5.48749 0.748425 5.96466C0.448107 6.44184 0.485647 6.9712 0.846028 7.41855L2.65544 9.62548C4.41981 11.7578 5.86133 13.3385 8.69182 13.8529ZM64.3707 26.7739L64.4307 26.9006L65.5119 30.6733C66.3453 33.5587 68.0195 35.8327 70.2944 37.5625L67.4339 37.2642C62.9892 36.7945 59.3028 34.5354 57.6886 31.0162L55.5113 26.2594L64.3707 26.7739ZM121.033 20.347L111.543 27.169L107.601 22.032C109.088 26.5875 109.741 28.5409 114.058 41.6632L102.774 33.4841L91.4893 41.6632C95.8064 28.5409 96.4596 26.5875 97.9462 22.032L94.0045 27.169L84.5145 20.347L98.4867 20.3693C99.3727 17.6554 100.596 13.8678 102.774 7.17251C104.951 13.8678 106.182 17.6554 107.061 20.3693L121.033 20.347ZM126.476 8.02993V34.0657C126.476 37.9129 125.838 40.4702 119.592 44.3547L103.877 54.1219V51.1246L117.797 42.4684C120.05 41.0742 122.55 39.322 123.233 36.9884C123.511 36.0489 123.541 35.0275 123.541 34.0657V9.4018L126.476 8.02993ZM101.67 54.1219L85.9635 44.3547C79.7169 40.4702 79.0787 37.9129 79.0787 34.0657V8.02993L82.0143 9.4018V34.0657C82.0143 35.0275 82.0444 36.0489 82.3222 36.9884C82.9979 39.322 85.5055 41.0742 87.7579 42.4684L101.678 51.1246V54.1219H101.67ZM79.9647 6.38219C86.917 3.80993 94.6352 2.37841 102.774 2.37841C110.912 2.37841 118.638 3.80993 125.583 6.38219L122.415 7.8659C116.183 5.80809 109.531 4.75682 102.774 4.75682C96.0166 4.75682 89.3646 5.80064 83.133 7.8659L79.9647 6.38219ZM141.177 26.7739L150.036 26.2445L147.859 31.0013C146.245 34.5205 142.558 36.7796 138.114 37.2493L135.246 37.5476C137.521 35.8253 139.195 33.5438 140.028 30.6584L141.109 26.8857L141.177 26.7739ZM200.122 8.02993C198.733 9.71495 197.794 11.1465 194.979 11.2136L142.04 12.5556L137.017 30.0619C135.929 33.8644 133.038 36.3844 129.044 37.7787C129.352 36.5559 129.419 35.3183 129.419 34.0731V8.02993H200.122ZM144.826 14.2705L159.384 13.9797L157.402 18.0431C155.622 21.6965 151.756 24.06 147.101 24.3358L141.793 24.649L144.826 14.2705ZM188.109 16.6041L161.186 17.6703L163.01 13.9051L193.252 13.3087C191.87 15.031 190.932 16.4923 188.109 16.6041ZM181.239 22.2109L156.703 23.7244C158.085 22.6359 159.241 21.3237 160.104 19.8251L186.39 18.7812C184.986 20.511 184.077 22.0394 181.239 22.2109ZM174.294 28.0637L151.913 29.9426L153.708 26.0208L179.452 24.4775C178.033 26.2296 177.132 27.8252 174.294 28.0637ZM167.35 34.0508L147.754 36.2279C149.083 35.0797 150.156 33.7003 150.907 32.1272L172.515 30.3154C171.081 32.0899 170.18 33.7376 167.35 34.0508ZM5.43338 8.02993H76.1356V34.0657C76.1356 35.3108 76.2032 36.5559 76.5185 37.7712C72.5168 36.3844 69.6262 33.8569 68.5376 30.0544L63.5073 12.5482L10.5763 11.2061C7.76084 11.1465 6.82235 9.71495 5.43338 8.02993ZM60.7293 14.2705L63.755 24.6564L58.4469 24.3433C53.7845 24.0674 49.9179 21.7039 48.146 18.0506L46.1714 13.9871L60.7293 14.2705ZM17.4386 16.6041C14.6156 16.4923 13.6771 15.031 12.2956 13.3161L42.5376 13.9126L44.362 17.6778L17.4386 16.6041ZM24.3083 22.2109C21.4778 22.0394 20.5619 20.511 19.1579 18.7738L45.4432 19.8176C46.3066 21.3162 47.4553 22.6284 48.8368 23.717L24.3083 22.2109ZM31.2532 28.0637C28.4152 27.8252 27.5217 26.2371 26.0952 24.4775L51.8399 26.0208L53.6343 29.9426L31.2532 28.0637ZM38.198 34.0508C35.3675 33.7376 34.4666 32.0899 33.0326 30.3154L54.6404 32.1272C55.3912 33.7003 56.4648 35.0797 57.7937 36.2279L38.198 34.0508ZM65.7596 81.6488C63.3271 81.6488 62.8616 80.6348 62.8616 78.8678V71.315C62.8616 69.6225 63.3271 68.534 65.7596 68.534C68.3649 68.534 68.8079 69.6225 68.8079 71.315V78.8603C68.8079 80.6348 68.1997 81.6488 65.7596 81.6488ZM65.7596 84.6013C70.2194 84.6013 72.1714 82.879 72.1714 79.0392V71.1435C72.1714 67.1994 70.2944 65.5815 65.7596 65.5815C61.2324 65.5815 59.498 67.1994 59.498 71.1435V79.0318C59.498 82.879 61.2999 84.6013 65.7596 84.6013ZM101.858 65.7977V84.4522H112.992V81.4027H105.214V76.4893H111.551V73.4921H105.214V68.698H112.639V65.7977H101.858ZM40.4729 84.4298H51.3519V81.276H44.85V81.194L51.3744 68.4296V65.7679H41.0285V68.9217H47.2451V69.0037L40.4654 82.3198V84.4298H40.4729ZM165.082 65.8722H154.053V68.8248H157.92V84.2882H161.231V68.8248H165.075V65.8722H165.082ZM145.276 71.9338H141.92V84.3105H145.276V71.9338ZM132.678 81.2611H125.5V65.7977H122.144V84.2882H132.685V81.2611H132.678ZM93.6591 84.2882L89.5748 77.2498C91.8197 76.5266 92.7882 75.0429 92.7882 72.3066V71.3448C92.7882 67.4305 90.686 65.7977 86.1887 65.7977H81.4963V84.2882H84.8298V77.7792H86.0611L89.7625 84.2882H93.6591ZM84.8073 74.7298V68.8471H86.2338C88.824 68.8471 89.282 69.7567 89.282 71.5089V72.1351C89.282 73.8873 88.6063 74.7298 86.1887 74.7298H84.8073ZM146.898 65.8722L144.886 67.3336L145.659 69.6747L143.647 68.2134L141.635 69.6747L142.408 67.3336L140.389 65.8722H142.881C143.039 65.3876 143.257 64.7091 143.647 63.5162L144.413 65.8722H146.898Z" fill="black"/>
</svg>
