<svg width="17" height="18" viewBox="0 0 17 18" fill="none" xmlns="http://www.w3.org/2000/svg">
    <path d="M13.757 4H15.1457C15.6175 4 16 4.39175 16 4.875V16.125C16 16.6082 15.6175 17 15.1457 17V17H1.85429C1.38248 17 1 16.6082 1 16.125V4.875C1 4.39175 1.38248 4 1.85429 4H3.23081" stroke="#BDBDBD" stroke-width="1.5"/>
    <path fill-rule="evenodd" clip-rule="evenodd" d="M10.4737 3.25452V3.97219C10.4737 4.81594 11.1806 5.49997 12.0526 5.49997C12.9246 5.49997 13.6316 4.81594 13.6316 3.97219V3.25452H15.1532C15.6209 3.25452 16 3.66502 16 4.1714V7.99997H1V4.1714C1 3.66502 1.37911 3.25452 1.84677 3.25452H3.36842V3.97219C3.36842 4.81594 4.07536 5.49997 4.94737 5.49997C5.81938 5.49997 6.52632 4.81594 6.52632 3.97219V3.25452H10.4737Z" fill="#BDBDBD"/>
    <path fill-rule="evenodd" clip-rule="evenodd" d="M5.5 1V1C4.67159 1 4 1.68403 4 2.52778V4.47222C4 5.31597 4.67159 6 5.5 6C6.32841 6 7 5.31597 7 4.47222V2.52778C7 1.68403 6.32841 1 5.5 1Z" stroke="#BDBDBD" stroke-width="1.5"/>
    <path fill-rule="evenodd" clip-rule="evenodd" d="M11.5 1V1C10.6716 1 10 1.68403 10 2.52778V4.47222C10 5.31597 10.6716 6 11.5 6C12.3284 6 13 5.31597 13 4.47222V2.52778C13 1.68403 12.3284 1 11.5 1Z" stroke="#BDBDBD" stroke-width="1.5"/>
</svg>
