<svg width="25" height="17" viewBox="0 0 25 17" fill="none" xmlns="http://www.w3.org/2000/svg">
    <path d="M23.8778 1.2417L16.5718 8.5007L23.8778 15.7597C24.0099 15.4837 24.09 15.1785 24.09 14.8526V2.1488C24.09 1.82288 24.0099 1.51775 23.8778 1.2417Z" fill="white"/>
    <path d="M21.973 0.03125H2.11739C1.79147 0.03125 1.48634 0.111378 1.21029 0.243451L10.5482 9.53431C11.3739 10.36 12.7165 10.36 13.5422 9.53431L22.8801 0.243451C22.604 0.111378 22.2989 0.03125 21.973 0.03125Z" fill="white"/>
    <path d="M0.212201 1.2417C0.0801281 1.51775 0 1.82288 0 2.1488V14.8526C0 15.1785 0.0801281 15.4837 0.212201 15.7597L7.51826 8.5007L0.212201 1.2417Z" fill="white"/>
    <path d="M15.574 9.49805L14.5401 10.5319C13.1644 11.9076 10.9259 11.9076 9.55013 10.5319L8.51632 9.49805L1.21027 16.7571C1.48632 16.8891 1.79144 16.9693 2.11737 16.9693H21.9729C22.2989 16.9693 22.604 16.8891 22.88 16.7571L15.574 9.49805Z" fill="white"/>
</svg>
