<svg width="24" height="24" viewBox="0 0 24 24" fill="none" xmlns="http://www.w3.org/2000/svg">
    <path d="M16.8374 0H7.35664C3.50358 0 0.368896 3.13468 0.368896 6.98774V16.4685C0.368896 20.3216 3.50358 23.4562 7.35664 23.4562H16.8374C20.6904 23.4562 23.8251 20.3216 23.8251 16.4685V6.98774C23.8251 3.13468 20.6904 0 16.8374 0ZM21.4654 16.4685C21.4654 19.0245 19.3934 21.0965 16.8374 21.0965H7.35664C4.80066 21.0965 2.72859 19.0245 2.72859 16.4685V6.98774C2.72859 4.43172 4.80066 2.3597 7.35664 2.3597H16.8374C19.3934 2.3597 21.4654 4.43172 21.4654 6.98774V16.4685Z" fill="white"/>
    <path d="M12.0973 5.66162C8.75212 5.66162 6.03064 8.3831 6.03064 11.7282C6.03064 15.0733 8.75212 17.7948 12.0973 17.7948C15.4424 17.7948 18.1639 15.0733 18.1639 11.7282C18.1639 8.38306 15.4424 5.66162 12.0973 5.66162ZM12.0973 15.4352C10.05 15.4352 8.39034 13.7755 8.39034 11.7282C8.39034 9.68094 10.05 8.02132 12.0973 8.02132C14.1445 8.02132 15.8042 9.68094 15.8042 11.7282C15.8042 13.7755 14.1445 15.4352 12.0973 15.4352Z" fill="white"/>
    <path d="M18.1759 7.16031C18.9788 7.16031 19.6296 6.50947 19.6296 5.70662C19.6296 4.90377 18.9788 4.25293 18.1759 4.25293C17.3731 4.25293 16.7222 4.90377 16.7222 5.70662C16.7222 6.50947 17.3731 7.16031 18.1759 7.16031Z" fill="white"/>
</svg>
