<svg width="20" height="20" viewBox="0 0 20 20" fill="none" xmlns="http://www.w3.org/2000/svg">
    <path fill-rule="evenodd" clip-rule="evenodd" d="M5.80179 7.46741C3.99293 7.46741 2.41469 8.50266 1.56946 10.04C2.41469 11.5774 3.99293 12.6127 5.80179 12.6127C7.61064 12.6127 9.18889 11.5774 10.0341 10.04C9.18889 8.50266 7.61064 7.46741 5.80179 7.46741Z" stroke="#BDBDBD" stroke-width="1.5"/>
    <path fill-rule="evenodd" clip-rule="evenodd" d="M14.2742 7.46741C12.4653 7.46741 10.8871 8.50266 10.0419 10.04C10.8871 11.5774 12.4653 12.6127 14.2742 12.6127C16.0831 12.6127 17.6613 11.5774 18.5065 10.04C17.6613 8.50266 16.0831 7.46741 14.2742 7.46741Z" stroke="#BDBDBD" stroke-width="1.5"/>
    <path fill-rule="evenodd" clip-rule="evenodd" d="M12.482 5.58082C12.482 3.67676 11.4987 2.01545 10.038 1.12573C8.57733 2.01545 7.59399 3.67676 7.59399 5.58082C7.59399 7.48488 8.57733 9.14619 10.038 10.0359C11.4987 9.14619 12.482 7.48488 12.482 5.58082Z" stroke="#BDBDBD" stroke-width="1.5"/>
    <path fill-rule="evenodd" clip-rule="evenodd" d="M12.482 14.4992C12.482 12.5951 11.4987 10.9338 10.038 10.0441C8.57733 10.9338 7.59399 12.5951 7.59399 14.4992C7.59399 16.4032 8.57733 18.0645 10.038 18.9542C11.4987 18.0645 12.482 16.4032 12.482 14.4992Z" stroke="#BDBDBD" stroke-width="1.5"/>
    <path fill-rule="evenodd" clip-rule="evenodd" d="M14.7617 8.70602C16.0408 7.35962 16.4614 5.45299 16.0263 3.73665C14.3957 3.27859 12.5845 3.72139 11.3052 5.06779C10.0263 6.41419 9.60563 8.32082 10.0408 10.0372C11.6711 10.4952 13.4826 10.0524 14.7617 8.70602Z" stroke="#BDBDBD" stroke-width="1.5"/>
    <path fill-rule="evenodd" clip-rule="evenodd" d="M8.77072 15.0122C10.0498 13.6658 10.4705 11.7591 10.0353 10.0428C8.40478 9.58474 6.59348 10.0275 5.31424 11.3739C4.03532 12.7203 3.61466 14.627 4.04982 16.3433C5.68018 16.8014 7.49164 16.3586 8.77072 15.0122Z" stroke="#BDBDBD" stroke-width="1.5"/>
    <path fill-rule="evenodd" clip-rule="evenodd" d="M11.1424 15.0122C12.4215 16.3586 14.2329 16.8014 15.8633 16.3433C16.2983 14.627 15.8778 12.7203 14.5987 11.3739C13.3196 10.0275 11.5083 9.58474 9.87782 10.0428C9.44266 11.7591 9.86332 13.6658 11.1424 15.0122Z" stroke="#BDBDBD" stroke-width="1.5"/>
    <path fill-rule="evenodd" clip-rule="evenodd" d="M5.15144 8.70602C6.43052 10.0524 8.24198 10.4952 9.87234 10.0372C10.3073 8.32082 9.88683 6.41419 8.60775 5.06779C7.32867 3.72139 5.51721 3.27859 3.88685 3.73665C3.4517 5.45299 3.87236 7.35962 5.15144 8.70602Z" stroke="#BDBDBD" stroke-width="1.5"/>
</svg>
