<svg width="20" height="23" viewBox="0 0 20 23" fill="none" xmlns="http://www.w3.org/2000/svg">
    <path d="M16.4781 2.8272C14.655 1.00405 12.231 0 9.65267 0C7.07437 0 4.65035 1.00405 2.82724 2.8272C1.00405 4.6504 0 7.07437 0 9.65262C0 14.8684 4.93175 19.2067 7.58128 21.5374C7.94942 21.8612 8.26737 22.1409 8.5206 22.3775C8.83802 22.6741 9.24525 22.8223 9.65262 22.8223C10.0599 22.8223 10.4673 22.674 10.7846 22.3776C11.038 22.141 11.3559 21.8613 11.724 21.5374C14.3735 19.2067 19.3053 14.8685 19.3053 9.65267C19.3053 7.07437 18.3012 4.6504 16.4781 2.8272ZM9.65267 13.5417C7.3071 13.5417 5.3989 11.6335 5.3989 9.28791C5.3989 6.94234 7.3071 5.03414 9.65267 5.03414C11.9982 5.03414 13.9064 6.94234 13.9064 9.28791C13.9064 11.6335 11.9982 13.5417 9.65267 13.5417Z" fill="white"/>
</svg>
