<svg width="25" height="24" viewBox="0 0 25 24" fill="none" xmlns="http://www.w3.org/2000/svg">
    <path d="M20.8439 0.316406H3.24622C1.45342 0.316406 0 1.69326 0 3.39175V20.0632C0 21.7617 1.45336 23.1386 3.24622 23.1386H11.9253L11.9401 14.9832H9.70361C9.41296 14.9832 9.17706 14.7605 9.17594 14.4852L9.16521 11.8563C9.16409 11.5795 9.4007 11.3545 9.69294 11.3545H11.9254V8.81438C11.9254 5.8666 13.8257 4.26152 16.6014 4.26152H18.8791C19.1706 4.26152 19.4069 4.48534 19.4069 4.76147V6.97811C19.4069 7.25413 19.1707 7.47789 18.8794 7.47806L17.4816 7.47867C15.9721 7.47867 15.6798 8.15822 15.6798 9.1555V11.3546H18.9968C19.3128 11.3546 19.558 11.616 19.5208 11.9133L19.1919 14.5422C19.1604 14.7937 18.9352 14.9833 18.6679 14.9833H15.6946L15.6798 23.1387H20.844C22.6368 23.1387 24.0902 21.7618 24.0902 20.0634V3.39175C24.0901 1.69326 22.6368 0.316406 20.8439 0.316406Z" fill="white"/>
</svg>
